<?xml version="1.0" standalone="no"?>
<!DOCTYPE svg PUBLIC "-//W3C//DTD SVG 20010904//EN"
 "http://www.w3.org/TR/2001/REC-SVG-20010904/DTD/svg10.dtd">
<svg version="1.0" xmlns="http://www.w3.org/2000/svg"
 width="1168.000000pt" height="1168.000000pt" viewBox="0 0 1168.000000 1168.000000"
 preserveAspectRatio="xMidYMid meet">
<metadata>
Created by potrace 1.11, written by Peter Selinger 2001-2013
</metadata>
<g transform="translate(0.000000,1168.000000) scale(0.100000,-0.100000)"
fill="#000000" stroke="none">
<path d="M3890 10423 c0 -136 -1 -566 -1 -956 -1 -700 1 -750 30 -732 9 5 81
7 149 3 28 -2 52 1 52 5 0 4 9 3 20 -3 14 -7 26 -7 39 -1 10 6 21 8 24 4 9 -8
91 -8 105 1 7 4 12 2 12 -4 0 -7 6 -8 19 -1 10 6 21 8 24 4 5 -5 76 -7 102 -3
9 1 53 1 150 -1 22 0 45 0 50 0 9 2 178 1 270 0 22 -1 45 0 50 1 14 2 141 0
203 -3 28 -1 52 2 52 6 0 4 8 3 19 -2 10 -6 20 -8 22 -6 5 4 68 6 134 4 22 0
45 0 50 1 14 2 141 0 203 -3 28 -1 52 1 52 5 0 4 7 5 16 1 14 -5 100 -8 129
-3 9 1 96 1 190 -1 22 0 45 0 50 1 14 2 141 0 203 -3 28 -1 52 2 52 6 0 4 9 3
20 -3 14 -8 20 -8 20 0 0 6 5 8 11 5 15 -10 109 -11 109 -2 0 4 8 3 19 -2 10
-6 20 -8 22 -6 5 4 68 6 134 4 22 0 45 0 50 1 14 2 141 0 203 -3 28 -1 52 2
52 6 0 4 9 3 20 -3 14 -8 20 -8 20 0 0 6 5 8 11 5 15 -10 109 -11 109 -2 0 4
8 3 19 -2 10 -6 20 -8 22 -6 5 4 68 6 134 4 22 0 45 0 50 1 14 2 141 0 203 -3
28 -1 52 2 52 6 0 4 9 3 20 -3 14 -7 26 -7 39 -1 10 6 21 8 24 4 9 -8 91 -8
105 1 7 4 12 2 12 -4 0 -7 6 -8 19 -1 10 6 21 8 24 4 9 -8 91 -8 105 1 7 4 17
4 23 1 15 -10 109 -11 109 -2 0 5 4 6 9 3 5 -3 78 -8 163 -10 84 -3 164 -7
178 -11 14 -3 39 -7 55 -10 148 -25 357 -103 480 -177 48 -30 100 -63 105 -68
3 -3 23 -18 45 -35 86 -63 255 -231 255 -253 0 -6 3 -12 8 -14 9 -4 63 -76 78
-103 22 -42 39 -70 45 -75 9 -7 49 -96 49 -108 0 -5 7 -15 15 -22 9 -7 13 -15
10 -18 -3 -3 0 -11 6 -19 6 -7 9 -13 5 -13 -4 0 0 -12 7 -27 15 -29 60 -198
72 -268 15 -85 19 -206 11 -320 -5 -76 -7 -95 -21 -175 -15 -89 -62 -234 -107
-330 -17 -36 -30 -66 -29 -67 1 -4 -76 -124 -89 -140 -5 -7 -10 -17 -10 -23 0
-5 -4 -10 -8 -10 -4 0 -16 -15 -27 -33 -25 -43 -248 -263 -274 -272 -12 -3
-21 -11 -21 -16 0 -5 -7 -9 -15 -9 -8 0 -15 -4 -15 -9 0 -18 -258 -155 -332
-176 -5 -2 -10 -4 -13 -5 -3 -1 -8 -3 -12 -5 -5 -1 -15 -4 -23 -8 -8 -3 -28
-9 -45 -13 -34 -8 -42 -10 -52 -14 -5 -1 -12 -2 -16 -1 -4 1 -16 -3 -25 -8 -9
-5 -44 -12 -77 -16 -32 -3 -64 -9 -70 -13 -10 -7 -2571 -11 -2590 -5 -8 2 -11
448 -10 1438 0 789 -2 1435 -5 1435 -5 0 -33 -65 -35 -80 0 -3 -5 -12 -10 -20
-5 -8 -10 -20 -11 -26 -2 -12 -29 -77 -45 -106 -5 -10 -9 -23 -9 -28 0 -6 -9
-30 -19 -53 -11 -23 -38 -89 -60 -147 -23 -58 -46 -114 -51 -125 -5 -11 -24
-56 -41 -100 -17 -44 -36 -91 -42 -105 -6 -14 -11 -27 -12 -30 0 -3 -7 -16
-15 -30 -7 -14 -13 -26 -12 -27 2 -4 -5 -24 -45 -123 -38 -94 -39 -98 -78
-189 -15 -35 -28 -68 -29 -75 -2 -6 -11 -31 -22 -56 -10 -25 -18 -48 -16 -52
1 -5 -3 -8 -8 -8 -6 0 -10 -7 -10 -16 0 -9 -7 -32 -16 -52 -28 -65 -33 -76
-67 -162 -19 -47 -38 -94 -42 -105 -5 -11 -9 -22 -10 -25 -1 -3 -6 -16 -12
-30 -6 -14 -21 -48 -32 -77 -12 -28 -26 -64 -33 -80 -6 -15 -12 -30 -12 -33
-1 -6 -52 -130 -72 -177 -8 -17 -14 -33 -14 -36 0 -2 -8 -22 -17 -43 -9 -22
-17 -41 -18 -44 -1 -3 -6 -16 -12 -30 -6 -14 -19 -45 -28 -70 -9 -25 -26 -64
-36 -87 -10 -24 -19 -46 -19 -49 0 -3 -7 -20 -15 -37 -18 -40 -97 -239 -96
-244 0 -3 -42 -101 -59 -138 -24 -53 -223 -553 -227 -572 -3 -13 -10 -23 -15
-23 -5 0 -7 -3 -5 -8 3 -4 -3 -25 -14 -46 -10 -22 -19 -43 -19 -47 0 -3 -8
-24 -17 -45 -9 -22 -17 -41 -18 -44 -3 -9 -25 -65 -35 -85 -29 -64 -144 -361
-142 -367 1 -5 -3 -8 -8 -8 -6 0 -10 -7 -10 -15 0 -14 -5 -26 -49 -127 -12
-26 -21 -50 -21 -52 0 -3 -5 -17 -12 -33 -6 -15 -12 -32 -14 -38 -1 -5 -12
-32 -24 -60 -12 -27 -25 -59 -30 -70 -4 -11 -15 -36 -24 -57 -9 -20 -16 -38
-16 -41 0 -2 -7 -21 -15 -41 -8 -20 -15 -38 -15 -41 0 -3 -6 -18 -15 -35 -13
-26 -15 -201 -15 -1480 0 -797 3 -1450 8 -1450 11 -1 1629 -1 1792 0 l145 0
-1 1445 c0 1025 3 1445 10 1447 6 2 595 3 1309 3 713 0 1297 2 1297 5 0 3 28
6 63 6 56 1 84 4 207 19 53 6 103 14 126 19 12 2 38 7 57 10 62 10 248 55 337
82 47 15 90 27 95 29 6 1 18 5 28 8 9 4 25 10 35 14 9 3 22 7 27 8 9 3 140 55
195 78 14 5 28 10 33 9 4 -1 7 2 7 8 0 5 9 10 20 10 11 0 20 5 20 10 0 6 3 9
8 8 23 -7 346 175 497 281 221 153 454 357 585 511 11 14 33 39 48 55 15 17
48 55 72 85 25 30 49 60 55 67 23 28 32 41 65 88 19 27 38 54 43 60 4 5 22 33
39 60 18 28 49 76 70 108 21 32 38 64 38 72 0 7 4 15 9 17 11 4 147 275 156
311 4 15 12 27 18 27 6 0 7 3 4 7 -4 3 -3 11 2 17 10 13 31 77 30 90 0 5 4 12
9 15 5 3 17 31 26 61 10 30 20 62 23 70 21 53 98 345 108 410 3 19 10 62 16
95 6 33 13 78 15 100 3 22 6 54 8 70 27 222 27 490 1 745 -10 100 -17 149 -25
187 -6 22 -12 58 -15 80 -17 113 -125 494 -165 578 -10 20 -32 76 -35 85 0 3
-14 34 -30 70 -17 36 -28 67 -27 69 2 2 0 7 -5 10 -4 3 -25 40 -46 81 -83 164
-253 437 -279 448 -5 2 -8 10 -8 17 0 8 -6 18 -13 22 -7 4 -26 26 -42 49 -122
167 -409 458 -570 576 -5 5 -36 28 -67 53 -31 25 -61 45 -66 45 -6 0 -12 3
-14 8 -4 10 -78 64 -78 57 0 -3 -9 3 -20 13 -11 10 -33 25 -48 33 -15 8 -29
16 -32 20 -30 32 -436 235 -550 274 -3 1 -16 6 -30 12 -14 5 -63 22 -110 38
-47 15 -94 31 -105 36 -42 17 -285 76 -355 85 -19 3 -42 8 -50 11 -16 6 -72
14 -107 15 -13 0 -23 3 -23 7 0 3 -17 6 -38 7 -20 0 -64 4 -97 9 -33 5 -1105
10 -2382 12 l-2323 4 0 -248z"/>
<path d="M1974 8742 c-22 -2 -34 -10 -39 -25 -4 -12 -8 -24 -10 -27 -4 -10
-19 -47 -50 -125 -18 -44 -36 -89 -40 -100 -5 -11 -9 -22 -10 -25 0 -3 -9 -20
-18 -37 -10 -18 -18 -36 -18 -40 -1 -5 -6 -19 -11 -33 -18 -47 -60 -155 -73
-185 -7 -16 -22 -55 -34 -85 -12 -30 -26 -64 -31 -75 -5 -11 -28 -67 -50 -125
-23 -58 -47 -116 -53 -130 -5 -14 -11 -27 -11 -30 -6 -22 -43 -110 -55 -130
-9 -13 -15 -25 -13 -27 1 -2 -5 -19 -13 -39 -8 -20 -15 -41 -15 -46 0 -5 -7
-19 -15 -31 -8 -13 -16 -32 -18 -42 -2 -11 -9 -31 -15 -45 -24 -53 -94 -226
-97 -240 -2 -8 -4 -17 -5 -20 -1 -3 -2 -8 -1 -12 0 -5 -3 -8 -9 -8 -5 0 -12
-16 -16 -35 -3 -19 -10 -35 -14 -35 -4 0 -11 -12 -14 -26 -4 -14 -31 -85 -60
-158 -30 -72 -82 -201 -116 -286 -34 -85 -66 -164 -71 -175 -12 -28 -32 -78
-35 -90 -1 -5 -12 -32 -25 -60 -12 -27 -23 -54 -24 -60 -3 -12 -70 -177 -91
-222 -8 -17 -14 -35 -14 -40 -1 -4 -9 -26 -20 -48 -11 -22 -19 -44 -20 -48 0
-5 -6 -23 -14 -40 -8 -18 -37 -88 -65 -157 -27 -69 -55 -138 -62 -155 -7 -16
-13 -32 -13 -35 -1 -3 -5 -11 -9 -17 -5 -7 -5 -13 -1 -13 4 0 -1 -9 -11 -20
-10 -11 -15 -20 -12 -20 3 0 -3 -21 -14 -47 -12 -27 -27 -64 -35 -83 -8 -19
-19 -43 -24 -52 -6 -10 -10 -22 -10 -27 0 -5 -5 -22 -12 -38 -6 -15 -12 -30
-13 -33 0 -3 -6 -15 -13 -26 -6 -12 -8 -24 -5 -28 3 -3 1 -6 -6 -6 -7 0 -9 -4
-6 -10 3 -5 1 -10 -6 -10 -7 0 -9 -3 -6 -7 4 -3 2 -12 -4 -20 -6 -7 -9 -13 -5
-13 4 0 0 -13 -8 -29 -9 -16 -22 -46 -29 -67 -8 -22 -74 -185 -147 -364 -72
-179 -133 -329 -134 -335 -1 -5 -10 -25 -19 -42 -10 -18 -17 -34 -17 -35 2 -4
-11 -39 -31 -87 -11 -24 -19 -44 -19 -45 0 -1 437 -2 971 -1 l972 0 13 30 c33
76 118 284 120 295 0 3 9 23 19 45 10 22 20 45 21 50 1 6 34 89 74 185 39 96
73 180 74 185 2 6 9 24 16 40 7 17 14 32 14 35 1 3 9 26 20 50 23 55 35 85 71
175 15 39 34 84 41 102 8 17 14 36 14 42 0 6 4 11 8 11 5 0 9 6 9 13 0 10 87
235 113 292 5 11 24 56 41 100 17 44 36 91 42 105 6 14 11 27 12 30 1 3 7 19
14 35 7 17 24 59 38 95 14 36 33 83 43 105 9 22 23 56 30 75 7 19 22 55 33 80
11 24 20 49 22 55 1 5 7 23 13 38 7 16 21 52 33 80 11 29 27 66 34 82 7 17 41
100 75 185 33 85 65 164 70 175 5 11 32 79 60 150 29 72 58 144 66 162 8 17
14 33 14 36 0 2 8 22 17 43 9 22 17 41 18 44 1 3 6 16 12 30 6 14 19 45 28 70
9 25 23 59 30 75 7 17 33 80 57 140 25 61 48 119 53 130 5 11 9 22 9 25 1 3
14 37 29 75 31 75 35 85 66 158 11 26 17 47 14 47 -3 0 -1 6 5 13 9 11 140
327 146 352 1 6 12 32 24 59 12 27 22 55 22 62 0 8 4 14 8 14 5 0 9 6 9 13 0
6 7 28 15 47 9 19 33 78 53 130 21 52 44 108 51 124 8 16 14 30 14 32 0 3 -65
4 -159 3 -25 0 -48 -2 -52 -5 -4 -2 -10 0 -14 6 -4 6 -11 7 -17 4 -14 -9 -103
-9 -117 0 -6 4 -16 4 -23 0 -14 -9 -96 -9 -105 -1 -3 4 -14 2 -24 -4 -13 -7
-19 -6 -19 1 0 6 -5 8 -12 4 -6 -4 -32 -6 -57 -5 -25 1 -53 1 -61 1 -27 0
-143 1 -149 2 -3 0 -10 -1 -16 -2 -5 -1 -28 -2 -50 -1 -92 1 -261 2 -270 0 -5
0 -28 -1 -50 0 -92 1 -261 2 -270 0 -5 0 -28 -1 -50 0 -90 1 -261 2 -267 1
-21 -4 -77 -3 -89 1 -8 2 -28 3 -45 1z"/>
</g>
</svg>
